<svg width="147" height="53" viewBox="0 0 147 53" fill="none" xmlns="http://www.w3.org/2000/svg">
<path d="M15.8887 29.5732C15.791 28.2793 14.8389 27.5225 13.1299 27.5225C11.4453 27.5225 10.5908 28.2549 10.5664 29.2559C10.542 30.3545 11.6162 30.8916 13.2031 31.2334L14.7412 31.5996C18.1348 32.3564 20.1123 34.041 20.1367 36.873C20.1123 40.2178 17.5244 42.2441 13.1299 42.2441C8.73535 42.2441 5.87891 40.2422 5.80566 36.1895H9.80957C9.90723 37.8984 11.1768 38.7773 13.0811 38.7773C14.8389 38.7773 15.8887 37.9961 15.9131 36.873C15.8887 35.8477 14.9854 35.3105 13.0322 34.8711L11.1768 34.4316C8.125 33.7236 6.26953 32.21 6.26953 29.5488C6.24512 26.2773 9.15039 24.0801 13.1543 24.0801C17.2314 24.0801 19.8438 26.3018 19.8926 29.5732H15.8887ZM25.4102 42H20.918L26.9238 24.3242H32.4414L38.4229 42H33.9551L32.7588 38.2158H26.6064L25.4102 42ZM27.6074 35.042H31.7578L29.7559 28.6943H29.6094L27.6074 35.042Z" fill="black"/>
<path d="M57.5 24.75C57.5 22.825 55.925 21.25 54 21.25C52.075 21.25 50.5 22.825 50.5 24.75C50.5 26.675 52.075 28.25 54 28.25C55.925 28.25 57.5 26.675 57.5 24.75ZM46.965 37.4375C46.4575 35.8625 45.9675 34.0425 45.635 32.1875L43.5 33.6225V38.8375L46.965 37.4375ZM54 9C54 9 62.75 12.5 62.75 28.25L66.4425 30.7175C67.4225 31.365 68 32.4675 68 33.6225V44L59.25 40.5H48.75L40 44V33.6225C40 32.45 40.5775 31.365 41.5575 30.7175L45.25 28.25C45.25 12.5 54 9 54 9ZM54 13.13C54 13.13 48.75 16.665 48.75 28.25C48.75 32.1875 50.5 37 50.5 37H57.5C57.5 37 59.25 32.1875 59.25 28.25C59.25 16.665 54 13.13 54 13.13ZM64.5 38.8375V33.6225L62.365 32.205C62.0325 34.0425 61.5425 35.88 61.035 37.455L64.5 38.8375Z" fill="black"/>
<path d="M70.3428 42V24.3242H77.5693C81.5488 24.3242 83.9902 26.5703 83.9902 30.1836C83.9902 32.6128 82.8794 34.3584 80.9385 35.2373L84.625 42H80.0596L76.8125 35.9209H74.4932V42H70.3428ZM74.4932 32.6006H76.6904C78.6436 32.6006 79.6934 31.8438 79.6934 30.1836C79.6934 28.5234 78.6436 27.6934 76.6904 27.6934H74.4932V32.6006ZM95.8799 29.5732C95.7822 28.2793 94.8301 27.5225 93.1211 27.5225C91.4365 27.5225 90.582 28.2549 90.5576 29.2559C90.5332 30.3545 91.6074 30.8916 93.1943 31.2334L94.7324 31.5996C98.126 32.3564 100.104 34.041 100.128 36.873C100.104 40.2178 97.5156 42.2441 93.1211 42.2441C88.7266 42.2441 85.8701 40.2422 85.7969 36.1895H89.8008C89.8984 37.8984 91.168 38.7773 93.0723 38.7773C94.8301 38.7773 95.8799 37.9961 95.9043 36.873C95.8799 35.8477 94.9766 35.3105 93.0234 34.8711L91.168 34.4316C88.1162 33.7236 86.2607 32.21 86.2607 29.5488C86.2363 26.2773 89.1416 24.0801 93.1455 24.0801C97.2227 24.0801 99.835 26.3018 99.8838 29.5732H95.8799ZM102.276 42V24.3242H106.427V31.4531H113.531V24.3242H117.682V42H113.531V34.8467H106.427V42H102.276ZM124.518 24.3242V42H120.367V24.3242H124.518ZM127.203 42V24.3242H134.43C138.409 24.3242 140.851 26.8145 140.851 30.4033C140.851 34.0654 138.36 36.458 134.308 36.458H131.354V42H127.203ZM131.354 33.1621H133.551C135.504 33.1621 136.554 32.0635 136.554 30.4033C136.554 28.7432 135.504 27.6934 133.551 27.6934H131.354V33.1621Z" fill="black"/>
</svg>
