<svg width="25" height="21" viewBox="0 0 25 21" fill="none" xmlns="http://www.w3.org/2000/svg">
<path d="M0 6.78375C0 14.44 11.352 20.6372 11.8355 20.8931C11.9629 20.9617 12.1053 20.9976 12.25 20.9976C12.3947 20.9976 12.5371 20.9617 12.6645 20.8931C13.148 20.6372 24.5 14.44 24.5 6.78375C24.498 4.98588 23.7829 3.26221 22.5116 1.99092C21.2403 0.719631 19.5166 0.00452887 17.7188 0.00250244C15.4602 0.00250244 13.4827 0.973752 12.25 2.61547C11.0173 0.973752 9.03984 0.00250244 6.78125 0.00250244C4.98337 0.00452887 3.25971 0.719631 1.98842 1.99092C0.717129 3.26221 0.0020256 4.98588 0 6.78375Z" fill="black"/>
</svg>
