<svg width="25" height="21" viewBox="0 0 25 21" fill="none" xmlns="http://www.w3.org/2000/svg">
<path d="M0 6.78125C0 14.4375 11.352 20.6347 11.8355 20.8906C11.9629 20.9592 12.1053 20.995 12.25 20.995C12.3947 20.995 12.5371 20.9592 12.6645 20.8906C13.148 20.6347 24.5 14.4375 24.5 6.78125C24.498 4.98337 23.7829 3.25971 22.5116 1.98842C21.2403 0.717129 19.5166 0.00202643 17.7188 0C15.4602 0 13.4827 0.97125 12.25 2.61297C11.0173 0.97125 9.03984 0 6.78125 0C4.98337 0.00202643 3.25971 0.717129 1.98842 1.98842C0.717129 3.25971 0.00202643 4.98337 0 6.78125Z" fill="#FF0000"/>
</svg>
