<svg width="36" height="36" viewBox="0 0 36 36" fill="none" xmlns="http://www.w3.org/2000/svg">
<path d="M26.7123 14.7374C28.0735 13.3763 28.0735 11.1489 26.7123 9.78769C25.3511 8.42651 23.1237 8.42651 21.7625 9.78769C20.4014 11.1489 20.4014 13.3763 21.7625 14.7374C23.1237 16.0986 25.3511 16.0986 26.7123 14.7374ZM10.2915 16.2595C11.0463 14.7869 11.9868 13.1535 13.0634 11.6067L10.539 11.1117L6.85143 14.7993L10.2915 16.2595ZM35.3743 1.12563C35.3743 1.12563 39.0867 9.78769 27.9497 20.9246L28.8159 25.2804C29.051 26.4312 28.6798 27.6192 27.8631 28.4359L20.5251 35.7739L16.8128 27.1118L9.38817 19.6872L0.726117 15.9749L8.06412 8.63687C8.8932 7.80779 10.0688 7.44893 11.2196 7.68404L15.5754 8.55025C26.7123 -2.58668 35.3743 1.12563 35.3743 1.12563ZM32.454 4.04598C32.454 4.04598 26.2421 2.83329 18.0502 11.0251C15.266 13.8094 13.1005 18.4497 13.1005 18.4497L18.0502 23.3995C18.0502 23.3995 22.6906 21.234 25.4749 18.4497C33.6667 10.2579 32.454 4.04598 32.454 4.04598ZM21.7007 29.6485L25.3882 25.961L24.8809 23.449C23.3465 24.5132 21.7007 25.466 20.2281 26.2208L21.7007 29.6485Z" fill="white"/>
</svg>
